<svg width="150" height="147" viewBox="0 0 150 147" fill="none" xmlns="http://www.w3.org/2000/svg">
<g clip-path="url(#clip0_4_20)">
<path d="M26.5625 0H123.438C138.125 0 150 11.875 150 26.5625V119.688C150 134.375 138.125 146.25 123.438 146.25H26.5625C11.875 146.25 0 134.375 0 119.688V26.5625C0 11.875 11.875 0 26.5625 0Z" fill="#330000"/>
<path d="M72.5 87.5H49.25L44.5 102.187C44.375 102.75 43.875 103.125 43.3125 103.062H31.5625C30.875 103.062 30.6875 102.688 30.875 101.938L51 44C51.1875 43.375 51.375 42.6875 51.625 41.9375C51.875 40.625 52 39.25 52 37.875C51.9375 37.5625 52.1875 37.25 52.5 37.1875H68.6875C69.1875 37.1875 69.4375 37.375 69.5 37.6875L92.3125 102.063C92.5 102.75 92.3125 103.062 91.6875 103.062H78.625C78.1875 103.125 77.75 102.813 77.625 102.375L72.5 87.5ZM52.875 74.8125H68.75C68.375 73.5 67.875 71.9375 67.3125 70.3125C66.75 68.625 66.1875 66.8125 65.625 64.9375C65 63 64.4375 61.125 63.8125 59.1875C63.1875 57.25 62.625 55.4375 62.125 53.625C61.625 51.875 61.1875 50.25 60.75 48.75H60.625C60.0625 51.4375 59.375 54.125 58.5 56.8125C57.5625 59.8125 56.625 62.9375 55.625 66.0625C54.75 69.25 53.8125 72.1875 52.875 74.8125ZM106.25 48.125C104.187 48.1875 102.187 47.375 100.687 45.9375C99.25 44.375 98.5 42.3125 98.5625 40.1875C98.5 38.0625 99.3125 36.0625 100.812 34.625C102.312 33.1875 104.312 32.4375 106.375 32.4375C108.812 32.4375 110.687 33.1875 112.062 34.625C113.437 36.125 114.187 38.125 114.125 40.1875C114.187 42.3125 113.437 44.375 111.937 45.9375C110.5 47.4375 108.375 48.25 106.25 48.125ZM99.25 102.375V54.25C99.25 53.625 99.5 53.375 100.062 53.375H112.437C113 53.375 113.25 53.6875 113.25 54.25V102.375C113.25 103.063 113 103.375 112.437 103.375H100.187C99.5625 103.375 99.25 103 99.25 102.375Z" fill="#FF9A00"/>
</g>
<defs>
<clipPath id="clip0_4_20">
<rect width="150" height="146.25" fill="white"/>
</clipPath>
</defs>
</svg>
