<svg width="150" height="147" viewBox="0 0 150 147" fill="none" xmlns="http://www.w3.org/2000/svg">
<g clip-path="url(#clip0_4_10)">
<path d="M26.5625 0H123.438C138.125 0 150 11.875 150 26.5625V119.688C150 134.375 138.125 146.25 123.438 146.25H26.5625C11.875 146.25 0 134.375 0 119.688V26.5625C0 11.875 11.875 0 26.5625 0Z" fill="#001E36"/>
<path d="M33.75 102.562V38.25C33.75 37.8125 33.9375 37.5625 34.375 37.5625C35.4375 37.5625 36.4375 37.5625 37.875 37.5C39.375 37.4375 40.9375 37.4375 42.625 37.375C44.3125 37.3125 46.125 37.3125 48.0625 37.25C50 37.1875 51.875 37.1875 53.75 37.1875C58.875 37.1875 63.125 37.8125 66.625 39.125C69.75 40.1875 72.625 41.9375 75 44.25C77 46.25 78.5625 48.6875 79.5625 51.375C80.5 54 81 56.6875 81 59.5C81 64.875 79.75 69.3125 77.25 72.8125C74.75 76.3125 71.25 78.9375 67.1875 80.4375C62.9375 82 58.25 82.5625 53.125 82.5625C51.625 82.5625 50.625 82.5625 50 82.5C49.375 82.4375 48.5 82.4375 47.3125 82.4375V102.5C47.375 102.937 47.0625 103.312 46.625 103.375C46.5625 103.375 46.5 103.375 46.375 103.375H34.5C34 103.375 33.75 103.125 33.75 102.562ZM47.375 49.625V70.625C48.25 70.6875 49.0625 70.75 49.8125 70.75H53.125C55.5625 70.75 58 70.375 60.3125 69.625C62.3125 69.0625 64.0625 67.875 65.4375 66.3125C66.75 64.75 67.375 62.625 67.375 59.875C67.4375 57.9375 66.9375 56 65.9375 54.3125C64.875 52.6875 63.375 51.4375 61.5625 50.75C59.25 49.8125 56.75 49.4375 54.1875 49.5C52.5625 49.5 51.125 49.5 49.9375 49.5625C48.6875 49.5 47.8125 49.5625 47.375 49.625Z" fill="#31A8FF"/>
<path d="M120 66.8125C118.125 65.8125 116.125 65.125 114 64.6875C111.687 64.1875 109.375 63.875 107 63.875C105.75 63.8125 104.437 64 103.25 64.3125C102.437 64.5 101.75 64.9375 101.312 65.5625C101 66.0625 100.812 66.6875 100.812 67.25C100.812 67.8125 101.062 68.375 101.437 68.875C102 69.5625 102.75 70.125 103.562 70.5625C105 71.3125 106.5 72 108 72.625C111.375 73.75 114.625 75.3125 117.625 77.1875C119.687 78.5 121.375 80.25 122.562 82.375C123.562 84.375 124.062 86.5625 124 88.8125C124.062 91.75 123.187 94.6875 121.562 97.125C119.812 99.625 117.375 101.563 114.562 102.688C111.5 104 107.75 104.687 103.25 104.687C100.375 104.687 97.5624 104.437 94.7499 103.875C92.5624 103.5 90.3749 102.812 88.3749 101.875C87.9374 101.625 87.6249 101.188 87.6874 100.688V89.8125C87.6874 89.625 87.7499 89.375 87.9374 89.25C88.1249 89.125 88.3124 89.1875 88.4999 89.3125C90.9374 90.75 93.4999 91.75 96.2499 92.375C98.6249 93 101.125 93.3125 103.625 93.3125C106 93.3125 107.687 93 108.812 92.4375C109.812 92 110.5 90.9375 110.5 89.8125C110.5 88.9375 110 88.125 109 87.3125C108 86.5 105.937 85.5625 102.875 84.375C99.6874 83.25 96.7499 81.75 93.9999 79.875C92.0624 78.5 90.4374 76.6875 89.2499 74.5625C88.2499 72.5625 87.7499 70.375 87.8124 68.1875C87.8124 65.5 88.5624 62.9375 89.9374 60.625C91.4999 58.125 93.8124 56.125 96.4999 54.875C99.4374 53.375 103.125 52.6875 107.562 52.6875C110.125 52.6875 112.75 52.875 115.312 53.25C117.187 53.5 119 54 120.687 54.6875C120.937 54.75 121.187 55 121.312 55.25C121.375 55.5 121.437 55.75 121.437 56V66.1875C121.437 66.4375 121.312 66.6875 121.125 66.8125C120.562 66.9375 120.25 66.9375 120 66.8125Z" fill="#31A8FF"/>
</g>
<defs>
<clipPath id="clip0_4_10">
<rect width="150" height="146.25" fill="white"/>
</clipPath>
</defs>
</svg>
